# xmcd CD database file
#
# Track frame offsets:
#	150
#	14685
#	26800
#	41415
#	56935
#	71110
#	87332
#	102837
#	119645
#	136632
#	148607
#	163890
#	176432
#	190277
#
# Disc length: 2730 seconds
#
# Revision: 0
# Processed by: cddbd v1.5.1PL0 Copyright (c) Steve Scherf et al.
# Submitted via: CDex 1.51
#
DISCID=ce0aa80e
DTITLE=Mats Rådberg och Rankarna - This aint our first rodeo
DYEAR=1992
DGENRE=Country
TTITLE0=This aint my first rodeo
TTITLE1=(You keep) driving me crazy
TTITLE2=Honky tonk heart
TTITLE3=If tomorrow never comes
TTITLE4=Win or lose
TTITLE5=The greatest heartache in the world
TTITLE6=Achy breaky heart
TTITLE7=We finally thru
TTITLE8=Heart on the line (operator operator)
TTITLE9=Not counting you
TTITLE10=He stopped loving her today
TTITLE11=Två av en sort
TTITLE12=Fel (wrong)
TTITLE13=Mycket dricka lite pröjs (working sheep)
EXTD=YEAR: 1992
EXTT0=
EXTT1=
EXTT2=
EXTT3=
EXTT4=
EXTT5=
EXTT6=
EXTT7=
EXTT8=
EXTT9=
EXTT10=
EXTT11=
EXTT12=
EXTT13=
PLAYORDER=
